<?xml version="1.0" encoding="UTF-8"?>
<svg xmlns="http://www.w3.org/2000/svg" viewBox="0 0 300 50">
  <defs>
    <!-- Green gradient for text -->
    <linearGradient id="greenGradient" x1="0%" y1="0%" x2="100%" y2="0%">
      <stop offset="0%" style="stop-color:#30D158;stop-opacity:1" />
      <stop offset="100%" style="stop-color:#00B37E;stop-opacity:1" />
    </linearGradient>
    
    <!-- Glow effect -->
    <filter id="glow" x="-20%" y="-20%" width="140%" height="140%">
      <feGaussianBlur stdDeviation="1" result="blur" />
      <feComposite in="SourceGraphic" in2="blur" operator="over" />
    </filter>
  </defs>
  
  <!-- Wolf icon in circle -->
  <circle cx="25" cy="25" r="23" fill="#1E1E1E" stroke="#30D158" stroke-width="2"/>
  
  <!-- Wolf silhouette -->
  <path d="M25,10 C35,10 35,25 25,35 C15,35 15,25 25,10" fill="#30D158" filter="url(#glow)"/>
  
  <!-- Text "WOLF63" -->
  <text x="55" y="30" font-family="Arial, sans-serif" font-weight="bold" font-size="24" fill="#FFFFFF">WOLF63</text>
  
  <!-- Text "SNIPER" -->
  <text x="145" y="30" font-family="Arial, sans-serif" font-weight="bold" font-size="24" fill="url(#greenGradient)">SNIPER</text>
  
  <!-- Small candlestick chart -->
  <g transform="translate(220, 25) scale(0.3, 0.3)">
    <line x1="10" y1="0" x2="10" y2="30" stroke="#30D158" stroke-width="3"/>
    <rect x="5" y="5" width="10" height="20" fill="#30D158"/>
    
    <line x1="25" y1="-10" x2="25" y2="20" stroke="#FF453A" stroke-width="3"/>
    <rect x="20" y="-10" width="10" height="20" fill="#FF453A"/>
    
    <line x1="40" y1="5" x2="40" y2="35" stroke="#30D158" stroke-width="3"/>
    <rect x="35" y="10" width="10" height="20" fill="#30D158"/>
    
    <line x1="55" y1="-5" x2="55" y2="25" stroke="#FF453A" stroke-width="3"/>
    <rect x="50" y="-5" width="10" height="20" fill="#FF453A"/>
    
    <line x1="70" y1="-15" x2="70" y2="15" stroke="#30D158" stroke-width="3"/>
    <rect x="65" y="-10" width="10" height="20" fill="#30D158"/>
  </g>
</svg>
