<?xml version="1.0" encoding="UTF-8"?>
<svg xmlns="http://www.w3.org/2000/svg" viewBox="0 0 1000 500">
  <!-- Wolf in crosshairs logo -->
  <g fill="#5A5A5A">
    <circle cx="230" cy="230" r="150" fill="none" stroke="#5A5A5A" stroke-width="15"/>
    <path d="M230,80 L230,130" stroke="#5A5A5A" stroke-width="15" stroke-linecap="round"/>
    <path d="M230,330 L230,380" stroke="#5A5A5A" stroke-width="15" stroke-linecap="round"/>
    <path d="M80,230 L130,230" stroke="#5A5A5A" stroke-width="15" stroke-linecap="round"/>
    <path d="M330,230 L380,230" stroke="#5A5A5A" stroke-width="15" stroke-linecap="round"/>
    
    <!-- Wolf head silhouette -->
    <path d="M310,170 C320,140 290,120 260,140 C240,110 210,120 200,140 C180,130 160,150 170,180 C150,200 160,240 180,250 C200,270 240,280 270,260 C290,270 310,250 310,230 C320,210 315,190 310,170Z" fill="#5A5A5A"/>
    
    <!-- Wolf eye -->
    <circle cx="240" cy="190" r="8" fill="#333333"/>
    
    <!-- Wolf mouth/snout -->
    <path d="M220,220 C230,240 260,240 270,220" fill="none" stroke="#333333" stroke-width="5"/>
  </g>
  
  <!-- Text "WOLF63x" -->
  <text x="400" y="300" font-family="Arial, sans-serif" font-weight="bold" font-size="150" fill="#5A5A5A">WOLF63x</text>
  
  <!-- Text "SNIPER BOT" -->
  <text x="410" y="380" font-family="Arial, sans-serif" font-weight="bold" font-size="70" fill="#5A5A5A">SNIPER BOT</text>
  
  <!-- Candlestick chart at bottom -->
  <g transform="translate(0, 450) scale(0.95, 0.5)">
    <!-- Green and red candlesticks -->
    <!-- Candle 1 -->
    <line x1="30" y1="50" x2="30" y2="150" stroke="#4CAF50" stroke-width="5"/>
    <rect x="20" y="70" width="20" height="60" fill="#4CAF50"/>
    
    <!-- Candle 2 -->
    <line x1="60" y1="30" x2="60" y2="130" stroke="#F44336" stroke-width="5"/>
    <rect x="50" y="30" width="20" height="60" fill="#F44336"/>
    
    <!-- Candle 3 -->
    <line x1="90" y1="70" x2="90" y2="170" stroke="#4CAF50" stroke-width="5"/>
    <rect x="80" y="90" width="20" height="60" fill="#4CAF50"/>
    
    <!-- Candle 4 -->
    <line x1="120" y1="40" x2="120" y2="140" stroke="#F44336" stroke-width="5"/>
    <rect x="110" y="40" width="20" height="60" fill="#F44336"/>
    
    <!-- Candle 5 -->
    <line x1="150" y1="90" x2="150" y2="190" stroke="#F44336" stroke-width="5"/>
    <rect x="140" y="90" width="20" height="60" fill="#F44336"/>
    
    <!-- Candle 6 -->
    <line x1="180" y1="110" x2="180" y2="210" stroke="#4CAF50" stroke-width="5"/>
    <rect x="170" y="130" width="20" height="60" fill="#4CAF50"/>
    
    <!-- Candle 7 -->
    <line x1="210" y1="70" x2="210" y2="170" stroke="#F44336" stroke-width="5"/>
    <rect x="200" y="70" width="20" height="60" fill="#F44336"/>
    
    <!-- Candle 8 -->
    <line x1="240" y1="90" x2="240" y2="190" stroke="#4CAF50" stroke-width="5"/>
    <rect x="230" y="110" width="20" height="60" fill="#4CAF50"/>
    
    <!-- Candle 9 -->
    <line x1="270" y1="60" x2="270" y2="160" stroke="#4CAF50" stroke-width="5"/>
    <rect x="260" y="80" width="20" height="60" fill="#4CAF50"/>
    
    <!-- Candle 10 -->
    <line x1="300" y1="40" x2="300" y2="140" stroke="#F44336" stroke-width="5"/>
    <rect x="290" y="40" width="20" height="60" fill="#F44336"/>
    
    <!-- Candle 11 -->
    <line x1="330" y1="70" x2="330" y2="170" stroke="#4CAF50" stroke-width="5"/>
    <rect x="320" y="90" width="20" height="60" fill="#4CAF50"/>
    
    <!-- Candle 12 -->
    <line x1="360" y1="50" x2="360" y2="150" stroke="#F44336" stroke-width="5"/>
    <rect x="350" y="50" width="20" height="60" fill="#F44336"/>
    
    <!-- Candle 13 -->
    <line x1="390" y1="90" x2="390" y2="190" stroke="#F44336" stroke-width="5"/>
    <rect x="380" y="90" width="20" height="60" fill="#F44336"/>
    
    <!-- Candle 14 -->
    <line x1="420" y1="110" x2="420" y2="210" stroke="#4CAF50" stroke-width="5"/>
    <rect x="410" y="130" width="20" height="60" fill="#4CAF50"/>
    
    <!-- Candle 15 -->
    <line x1="450" y1="80" x2="450" y2="180" stroke="#F44336" stroke-width="5"/>
    <rect x="440" y="80" width="20" height="60" fill="#F44336"/>
    
    <!-- Candle 16 -->
    <line x1="480" y1="100" x2="480" y2="200" stroke="#4CAF50" stroke-width="5"/>
    <rect x="470" y="120" width="20" height="60" fill="#4CAF50"/>
    
    <!-- Candle 17 -->
    <line x1="510" y1="60" x2="510" y2="160" stroke="#4CAF50" stroke-width="5"/>
    <rect x="500" y="80" width="20" height="60" fill="#4CAF50"/>
    
    <!-- Candle 18 -->
    <line x1="540" y1="30" x2="540" y2="130" stroke="#F44336" stroke-width="5"/>
    <rect x="530" y="30" width="20" height="60" fill="#F44336"/>
    
    <!-- Candle 19 -->
    <line x1="570" y1="50" x2="570" y2="150" stroke="#4CAF50" stroke-width="5"/>
    <rect x="560" y="70" width="20" height="60" fill="#4CAF50"/>
    
    <!-- Candle 20 -->
    <line x1="600" y1="70" x2="600" y2="170" stroke="#F44336" stroke-width="5"/>
    <rect x="590" y="70" width="20" height="60" fill="#F44336"/>
    
    <!-- Candle 21 -->
    <line x1="630" y1="90" x2="630" y2="190" stroke="#F44336" stroke-width="5"/>
    <rect x="620" y="90" width="20" height="60" fill="#F44336"/>
    
    <!-- Candle 22 -->
    <line x1="660" y1="120" x2="660" y2="220" stroke="#4CAF50" stroke-width="5"/>
    <rect x="650" y="140" width="20" height="60" fill="#4CAF50"/>
    
    <!-- Candle 23 -->
    <line x1="690" y1="80" x2="690" y2="180" stroke="#F44336" stroke-width="5"/>
    <rect x="680" y="80" width="20" height="60" fill="#F44336"/>
    
    <!-- Candle 24 -->
    <line x1="720" y1="100" x2="720" y2="200" stroke="#4CAF50" stroke-width="5"/>
    <rect x="710" y="120" width="20" height="60" fill="#4CAF50"/>
    
    <!-- Candle 25 -->
    <line x1="750" y1="70" x2="750" y2="170" stroke="#4CAF50" stroke-width="5"/>
    <rect x="740" y="90" width="20" height="60" fill="#4CAF50"/>
    
    <!-- Candle 26 -->
    <line x1="780" y1="40" x2="780" y2="140" stroke="#F44336" stroke-width="5"/>
    <rect x="770" y="40" width="20" height="60" fill="#F44336"/>
    
    <!-- Candle 27 -->
    <line x1="810" y1="60" x2="810" y2="160" stroke="#4CAF50" stroke-width="5"/>
    <rect x="800" y="80" width="20" height="60" fill="#4CAF50"/>
    
    <!-- Candle 28 -->
    <line x1="840" y1="40" x2="840" y2="140" stroke="#F44336" stroke-width="5"/>
    <rect x="830" y="40" width="20" height="60" fill="#F44336"/>
    
    <!-- Candle 29 -->
    <line x1="870" y1="60" x2="870" y2="160" stroke="#4CAF50" stroke-width="5"/>
    <rect x="860" y="80" width="20" height="60" fill="#4CAF50"/>
    
    <!-- Candle 30 -->
    <line x1="900" y1="80" x2="900" y2="180" stroke="#F44336" stroke-width="5"/>
    <rect x="890" y="80" width="20" height="60" fill="#F44336"/>
    
    <!-- Candle 31 -->
    <line x1="930" y1="100" x2="930" y2="200" stroke="#4CAF50" stroke-width="5"/>
    <rect x="920" y="120" width="20" height="60" fill="#4CAF50"/>
    
    <!-- Candle 32 -->
    <line x1="960" y1="70" x2="960" y2="170" stroke="#4CAF50" stroke-width="5"/>
    <rect x="950" y="90" width="20" height="60" fill="#4CAF50"/>
  </g>
</svg>
