<?xml version="1.0" encoding="UTF-8"?>
<svg xmlns="http://www.w3.org/2000/svg" viewBox="0 0 600 100">
  <!-- Wolf in crosshairs logo - simplified for header -->
  <g fill="#FFFFFF">
    <circle cx="50" cy="50" r="35" fill="none" stroke="#FFFFFF" stroke-width="4"/>
    <path d="M50,15 L50,30" stroke="#FFFFFF" stroke-width="4" stroke-linecap="round"/>
    <path d="M50,70 L50,85" stroke="#FFFFFF" stroke-width="4" stroke-linecap="round"/>
    <path d="M15,50 L30,50" stroke="#FFFFFF" stroke-width="4" stroke-linecap="round"/>
    <path d="M70,50 L85,50" stroke="#FFFFFF" stroke-width="4" stroke-linecap="round"/>
    
    <!-- Wolf head silhouette -->
    <path d="M65,40 C70,30 60,25 55,30 C50,25 45,25 40,30 C35,28 30,35 35,40 C30,45 35,55 40,55 C45,60 55,60 60,55 C65,60 70,55 70,50 C75,45 70,45 65,40Z" fill="#FFFFFF"/>
    
    <!-- Wolf eye -->
    <circle cx="52" cy="42" r="2" fill="#333333"/>
  </g>
  
  <!-- Text "WOLF63x SNIPER" -->
  <text x="100" y="60" font-family="Arial, sans-serif" font-weight="bold" font-size="40" fill="#FFFFFF">WOLF63x SNIPER</text>
</svg>
